<svg width="76" height="24" viewBox="0 0 76 24" fill="none" xmlns="http://www.w3.org/2000/svg">
<path d="M74.9323 11.8471H74.9645L74.969 11.8152C75.0169 11.48 75.0169 11.1215 75.0169 10.8134V10.8122C75.0169 6.70733 72.175 3.64778 68.1851 3.64778C64.1954 3.64778 61.3296 6.70716 61.3296 10.8122C61.3296 14.9172 64.1954 17.9766 68.1851 17.9766C71.3102 17.9766 73.774 16.2823 74.5163 13.9118L74.5314 13.8635H74.4809H71.9863H71.9623L71.9524 13.8855C71.4613 14.9847 70.0287 15.8354 68.1851 15.8354C65.7973 15.8354 64.1301 14.138 63.8554 11.8471H74.9323ZM68.1851 5.78894C70.5969 5.78894 72.2409 7.43985 72.5383 9.77724H63.8554C64.1296 7.46312 65.7735 5.78894 68.1851 5.78894Z" fill="#3370FF" stroke="#3370FF" stroke-width="0.0742424"/>
<path d="M60.1117 11.8471H60.1439L60.1485 11.8152C60.1964 11.48 60.1964 11.1215 60.1964 10.8134V10.8122C60.1964 6.70733 57.3545 3.64778 53.3646 3.64778C49.3748 3.64778 46.509 6.70716 46.509 10.8122C46.509 14.9172 49.3748 17.9766 53.3646 17.9766C56.4896 17.9766 58.9535 16.2823 59.6957 13.9118L59.7108 13.8635H59.6603H57.1658H57.1417L57.1319 13.8855C56.6408 14.9847 55.2081 15.8354 53.3646 15.8354C50.9767 15.8354 49.3095 14.138 49.0349 11.8471H60.1117ZM53.3646 5.78894C55.7764 5.78894 57.4203 7.43985 57.7177 9.77724H49.0348C49.309 7.46312 50.9529 5.78894 53.3646 5.78894Z" fill="#3370FF" stroke="#3370FF" stroke-width="0.0742424"/>
<path d="M37.5425 3.98039H37.5054V4.01751V17.6068V17.644H37.5425H39.9895H40.0266V17.6068V10.5746C40.0266 8.12296 41.9595 5.90772 44.7173 5.90772C45.5446 5.90772 46.2044 6.04955 46.7213 6.28452L46.7738 6.30837V6.25072V3.92248V3.89614L46.7489 3.88744C46.2681 3.71917 45.717 3.64778 44.8836 3.64778C42.3057 3.64778 40.6785 4.95687 40.0266 5.97616V4.01751V3.98039H39.9895H37.5425Z" fill="#3370FF" stroke="#3370FF" stroke-width="0.0742424"/>
<path d="M24.0549 23.4171H24.0921V23.3799V15.7181C24.8261 16.8571 26.4735 17.9766 28.8777 17.9766C32.749 17.9766 35.6382 14.8931 35.6382 10.8122C35.6382 6.73126 32.749 3.64778 28.8777 3.64778C26.4735 3.64778 24.8261 4.76729 24.0921 5.90625V4.01751V3.98039H24.0549H21.6079H21.5708V4.01751V23.3799V23.4171H21.6079H24.0549ZM33.1645 10.8122C33.1645 12.2179 32.7156 13.4501 31.9296 14.3303C31.1439 15.2102 30.0197 15.7404 28.6639 15.7404C25.9313 15.7404 24.0445 13.6217 24.0445 10.8122C24.0445 8.00267 25.9313 5.88397 28.6639 5.88397C30.0197 5.88397 31.1439 6.41419 31.9296 7.29405C32.7156 8.17428 33.1645 9.40642 33.1645 10.8122Z" fill="#3370FF" stroke="#3370FF" stroke-width="0.0742424"/>
<g clip-path="url(#clip0_86_370)">
<path d="M11.4177 15.779C13.5714 13.6252 13.5715 10.1334 11.4177 7.97966L0.169277 19.2281L4.06892 23.1278L11.4177 15.779Z" fill="#3370FF"/>
<path d="M12.918 4.30057L11.8727 3.2553C9.23025 0.612848 4.94598 0.612849 2.30352 3.25531C-0.338932 5.89776 -0.338933 10.182 2.30352 12.8245L3.34879 13.8697L12.918 4.30057Z" fill="#3370FF"/>
</g>
<defs>
<clipPath id="clip0_86_370">
<rect width="13.5" height="22.5" fill="white" transform="translate(0 0.620087)"/>
</clipPath>
</defs>
</svg>
