<svg width="12" height="12" viewBox="0 0 12 12" fill="none" xmlns="http://www.w3.org/2000/svg">
<g id="star-01">
<path id="Icon" d="M5.64133 1.72665C5.75657 1.49318 5.81419 1.37645 5.89241 1.33915C5.96047 1.3067 6.03954 1.3067 6.1076 1.33915C6.18583 1.37645 6.24345 1.49318 6.35869 1.72665L7.45203 3.94163C7.48605 4.01056 7.50306 4.04502 7.52792 4.07178C7.54994 4.09547 7.57633 4.11467 7.60566 4.1283C7.63878 4.1437 7.6768 4.14926 7.75286 4.16038L10.1985 4.51785C10.456 4.55549 10.5848 4.57431 10.6444 4.63721C10.6962 4.69194 10.7206 4.76714 10.7108 4.84188C10.6994 4.92778 10.6062 5.01858 10.4197 5.20018L8.65072 6.9232C8.59558 6.97691 8.56801 7.00377 8.55021 7.03572C8.53446 7.06402 8.52435 7.0951 8.52046 7.12725C8.51605 7.16355 8.52256 7.20149 8.53557 7.27736L8.95298 9.71105C8.997 9.96774 9.01902 10.0961 8.97765 10.1722C8.94166 10.2385 8.87768 10.285 8.80353 10.2987C8.71831 10.3145 8.60306 10.2539 8.37256 10.1327L6.18619 8.98291C6.11807 8.94708 6.08401 8.92917 6.04812 8.92213C6.01635 8.9159 5.98367 8.9159 5.9519 8.92213C5.91601 8.92917 5.88195 8.94708 5.81383 8.98291L3.62746 10.1327C3.39696 10.2539 3.28171 10.3145 3.19649 10.2987C3.12234 10.285 3.05836 10.2385 3.02237 10.1722C2.981 10.0961 3.00301 9.96774 3.04704 9.71105L3.46444 7.27736C3.47746 7.20149 3.48396 7.16355 3.47956 7.12725C3.47566 7.0951 3.46556 7.06402 3.4498 7.03572C3.43201 7.00377 3.40444 6.97691 3.34929 6.9232L1.58028 5.20018C1.39383 5.01858 1.30061 4.92778 1.28926 4.84188C1.27939 4.76714 1.30378 4.69194 1.35563 4.63721C1.41522 4.57431 1.54399 4.55549 1.80152 4.51785L4.24716 4.16038C4.32321 4.14926 4.36124 4.1437 4.39436 4.1283C4.42368 4.11467 4.45008 4.09547 4.47209 4.07178C4.49695 4.04502 4.51396 4.01056 4.54799 3.94163L5.64133 1.72665Z" stroke="#9D9FA5" stroke-linecap="round" stroke-linejoin="round"/>
</g>
</svg>
