<svg width="20" height="20" viewBox="0 0 20 20" fill="none" xmlns="http://www.w3.org/2000/svg">
<g id="star-01">
<path id="Icon" d="M9.40229 2.87776C9.59436 2.48864 9.6904 2.29408 9.82077 2.23192C9.9342 2.17784 10.066 2.17784 10.1794 2.23192C10.3098 2.29408 10.4058 2.48864 10.5979 2.87776L12.4201 6.5694C12.4768 6.68427 12.5052 6.74171 12.5466 6.78631C12.5833 6.82579 12.6273 6.85779 12.6762 6.88051C12.7314 6.90618 12.7948 6.91544 12.9215 6.93397L16.9976 7.52975C17.4268 7.59249 17.6414 7.62386 17.7407 7.72869C17.8271 7.8199 17.8678 7.94524 17.8513 8.06981C17.8324 8.21298 17.6771 8.36431 17.3663 8.66698L14.418 11.5387C14.326 11.6282 14.2801 11.673 14.2504 11.7262C14.2242 11.7734 14.2073 11.8252 14.2008 11.8788C14.1935 11.9393 14.2043 12.0025 14.226 12.1289L14.9217 16.1851C14.9951 16.6129 15.0318 16.8268 14.9628 16.9537C14.9028 17.0642 14.7962 17.1416 14.6726 17.1646C14.5306 17.1909 14.3385 17.0899 13.9543 16.8878L10.3104 14.9715C10.1969 14.9118 10.1401 14.882 10.0803 14.8702C10.0273 14.8598 9.97286 14.8598 9.91991 14.8702C9.8601 14.882 9.80333 14.9118 9.6898 14.9715L6.04585 16.8878C5.66168 17.0899 5.46959 17.1909 5.32756 17.1646C5.20398 17.1416 5.09735 17.0642 5.03736 16.9537C4.96842 16.8268 5.0051 16.6129 5.07848 16.1851L5.77415 12.1289C5.79584 12.0025 5.80669 11.9393 5.79935 11.8788C5.79285 11.8252 5.77601 11.7734 5.74975 11.7262C5.7201 11.673 5.67415 11.6282 5.58224 11.5387L2.63388 8.66698C2.32313 8.36431 2.16776 8.21298 2.14885 8.06981C2.1324 7.94524 2.17304 7.8199 2.25946 7.72869C2.35878 7.62386 2.57339 7.59249 3.00262 7.52975L7.07867 6.93397C7.20543 6.91545 7.26882 6.90618 7.32401 6.88051C7.37288 6.85779 7.41688 6.82579 7.45357 6.78631C7.495 6.74171 7.52336 6.68427 7.58006 6.5694L9.40229 2.87776Z" fill="#FFB700" stroke="#FFB700" stroke-width="1.66667" stroke-linecap="round" stroke-linejoin="round"/>
</g>
</svg>
